<?xml version="1.0" encoding="utf-8"?>
<!-- Generator: Adobe Illustrator 23.0.3, SVG Export Plug-In . SVG Version: 6.00 Build 0)  -->
<svg version="1.1" xmlns="http://www.w3.org/2000/svg" xmlns:xlink="http://www.w3.org/1999/xlink" x="0px" y="0px"
	 viewBox="0 0 1600 1200" style="enable-background:new 0 0 1600 1200;" xml:space="preserve">
<style type="text/css">
	.st0{fill:#d9c407;}
	.st1{fill:#d9c407;;}
	.st2{fill:#444444;}
	.st3{fill:#FFFFFF;}
	.st4{opacity:0.18;fill:#9B9797;}
	.st5{fill:#9B9797;}
	.st6{opacity:0.25;fill:#9B9797;}
	.st7{opacity:0.24;fill:#9B9797;}
	.st8{fill:none;stroke:#000000;stroke-width:3;stroke-miterlimit:10;}
</style>
<g id="background">
	<g>
		<g>
			<path class="st0" d="M110.3,972.7c23.3-30.1,64.6-31.1,98.7-24c19.7,4.1,39,10,58.4,15.4c20.1,5.5,40.2,11.1,60.3,16.6
				c22.7,6.3,45.3,12.5,68,18.8c1.9,0.5,2.7-2.4,0.8-2.9c-42.1-11.6-84.3-23.3-126.4-34.9c-37.3-10.3-78-26-117.1-17.7
				c-17.4,3.7-33.9,12.3-44.9,26.5C107,972.1,109.1,974.2,110.3,972.7L110.3,972.7z"/>
		</g>
	</g>
	<g>
		<g>
			<path class="st0" d="M256.1,958.8c10.6-5.2,15.1-19,26.6-22.6c11.8-3.7,24.9,3.6,35.7-4.4c4.7-3.5,8.2-9.3,13.9-11.4
				c5-1.8,10.2,0.2,15,1.7c4.1,1.3,8.2,2.5,12.3,3.8c16.5,5.1,32.9,10.1,49.4,15.2c18.7,5.7,37.3,11.5,56,17.2
				c1.8,0.6,2.6-2.3,0.8-2.9c-34.2-10.5-68.3-21-102.5-31.5c-8-2.4-16.3-6.1-24.6-7.1c-5.8-0.7-10.4,1.6-14.5,5.4
				c-5.7,5.3-10,10.2-18.3,10.6c-6.9,0.4-13.7-1.4-20.6-0.3c-14.2,2.2-18.6,17.7-30.6,23.6C252.9,957.1,254.4,959.7,256.1,958.8
				L256.1,958.8z"/>
		</g>
	</g>
	<g>
		<g>
			<path class="st0" d="M435.8,946.2c7.1,1.8,12.7-5.3,19.1-7.4c8.6-2.9,17.8-1.7,25.6,2.8c1.7,1,3.2-1.6,1.5-2.6
				c-6.6-3.9-14.1-5.5-21.7-4.5c-3.3,0.4-6.4,1.3-9.4,2.6c-4.3,1.9-9.3,7.4-14.3,6.2C434.7,942.8,433.9,945.7,435.8,946.2
				L435.8,946.2z"/>
		</g>
	</g>
	<g>
		<g>
			<path class="st0" d="M512.9,938.7c-6.7-5.5-13.1-11.4-19.1-17.7c-2.8-2.9-5.5-6-8.1-9.1c-1.5-1.8-3-3.6-4.4-5.4
				c-1-1.3-2-2.6-2.9-3.9c-1.6-1.6-1.6-3.6,0.1-5.8c1.2,0.5,3.1-0.7,2.1-2.1c-6.1-8.2-10.6-17.2-13.5-27c-0.6,0.6-1.2,1.2-1.8,1.8
				c3.3,0.9,5.7,2.6,7.5,5.4c1,1.6,3.6,0.2,2.6-1.5c-14.9-25.8-27.1-53-36.3-81.3c-0.8,0.5-1.7,1-2.5,1.5
				c41.9,41.2,60.9,98.5,96.2,144.6c1.2,1.5,3.8,0,2.6-1.5c-35.4-46.3-54.6-103.8-96.7-145.2c-1-1-3,0-2.5,1.5
				c9.3,28.6,21.5,56,36.6,82c0.9-0.5,1.7-1,2.6-1.5c-2.3-3.5-5.3-5.8-9.3-6.8c-1.1-0.3-2.2,0.7-1.8,1.8c3,10,7.6,19.3,13.8,27.7
				c0.7-0.7,1.4-1.4,2.1-2.1c-2.8-1.3-5.9,0-6.6,3.3c-0.9,4.7,4.8,9.9,7.4,13.2c8.9,11.1,19,21.2,30,30.2
				C512.3,942,514.4,939.9,512.9,938.7L512.9,938.7z"/>
		</g>
	</g>
	<g>
		<g>
			<path class="st0" d="M502.4,876.2c-18.4-27.5-33.3-57-44.3-88.2c-0.3,0.6-0.7,1.2-1,1.8c3.4-0.8,6.3,0.5,8.2,3.5
				c1,1.7,3.4,0.2,2.6-1.5c-15.5-33.5-31.3-68.4-30.2-106.1c-0.9,0.3-1.9,0.5-2.8,0.8c26.7,55,52.1,110.7,76.1,166.9
				c0.7,1.6,3.3,0.4,2.7-1.2c-4-12-7.9-24.1-11.9-36.1c-1.9-5.9-3.9-11.7-5.8-17.6c-1.3-3.9-4.1-12.4,1.5-14.5
				c-0.6-0.2-1.1-0.5-1.7-0.7c7.2,14.1,14.3,28.2,21.5,42.3c0.9,1.7,3.5,0.2,2.6-1.5c-7.8-15.3-11.4-32.2-10.7-49.4
				c-1,0.1-2,0.3-2.9,0.4c20.8,51.7,44.9,102.1,72,150.8c0.9,1.7,3.5,0.2,2.6-1.5c-27-48.5-51-98.6-71.7-150.1
				c-0.6-1.5-2.9-1.4-2.9,0.4c-0.7,17.7,3.1,35,11.1,50.9c0.9-0.5,1.7-1,2.6-1.5c-7.2-14.1-14.3-28.2-21.5-42.3
				c-0.3-0.5-1.1-0.9-1.7-0.7c-10,3.7-3.6,18-1.4,24.7c5.2,15.7,10.3,31.5,15.5,47.2c0.9-0.4,1.8-0.8,2.7-1.2
				c-24-56.2-49.4-111.9-76.1-166.9c-0.7-1.4-2.8-0.6-2.8,0.8c-1.2,38.2,14.9,73.7,30.6,107.6c0.9-0.5,1.7-1,2.6-1.5
				c-2.6-4.1-6.8-5.9-11.6-4.9c-0.8,0.2-1.3,1.1-1,1.8c11.1,31.4,26.1,61.2,44.6,88.9C500.9,879.3,503.5,877.8,502.4,876.2
				L502.4,876.2z"/>
		</g>
	</g>
	<g>
		<g>
			<path class="st0" d="M304.8,1069.5c34.6-16.7,71.1-33.7,110.6-29.7c18.7,1.9,36.8,7.3,55.4,9.7c9.4,1.2,18.9,1.7,28.3,0.6
				c8.8-1.1,17.1-4.3,25.7-6.2c11.1-2.5,21.2,0.1,31.9,3.1c8.8,2.4,17.5,4.4,26.6,2.3c1.9-0.4,1.1-3.3-0.8-2.9
				c-18.2,4.3-35.3-8.8-53.7-6.2c-9.1,1.3-17.6,4.9-26.6,6.5c-9.5,1.6-19.2,1.4-28.8,0.2c-18.9-2.2-37.3-7.8-56.3-9.9
				c-18.7-2.1-37.2,0.3-55.1,5.5c-20.4,6-39.7,15.2-58.7,24.4C301.5,1067.7,303.1,1070.3,304.8,1069.5L304.8,1069.5z"/>
		</g>
	</g>
	<g>
		<g>
			<path class="st0" d="M507.8,1152.4c11.7-5,23.2-10.5,34.3-16.7c5.8-3.3,11.5-6.7,17.2-10.3c5.1-3.3,10.2-8,15.8-10.4
				c6.3-2.6,15.8,2.3,22.1,4.2c6.7,2.1,13.4,4.1,20,6.2c13.7,4.2,27.4,8.4,41,12.6c1.8,0.6,2.6-2.3,0.8-2.9
				c-14.6-4.5-29.3-9-43.9-13.5c-7-2.2-14-4.3-21-6.5c-5.4-1.7-12.2-5.2-17.9-3.8c-5.3,1.3-10.1,5.9-14.6,8.9
				c-5.8,3.8-11.8,7.5-17.8,11c-12.1,6.9-24.6,13.1-37.5,18.5C504.5,1150.5,506.1,1153.1,507.8,1152.4L507.8,1152.4z"/>
		</g>
	</g>
	<g>
		<g>
			<path class="st0" d="M632.2,1155.5c7.6-3.8,15.2-7.7,22.8-11.5c7-3.6,14.5-8.4,22.5-9.1c8.1-0.8,14.4,4.5,21.4,7.6
				c5.9,2.6,12.3,4.1,18.7,4.5c15,0.8,29-6.7,43.9-5.9c11.9,0.7,23.9,10.5,35.6,4.3c1.7-0.9,0.2-3.5-1.5-2.6
				c-7.3,3.9-15.2,0.1-22.4-2.2c-6.2-2-12.2-2.9-18.7-2.2c-15.4,1.6-29.5,8.1-45.3,4.4c-13.1-3-23.1-13.9-37.2-9.8
				c-6.5,1.9-12.6,5.5-18.6,8.5c-7.6,3.8-15.2,7.7-22.8,11.5C629,1153.8,630.5,1156.4,632.2,1155.5L632.2,1155.5z"/>
		</g>
	</g>
	<g>
		<g>
			<path class="st0" d="M690.6,1133.8c-6.2-5.4-11.8-11.4-16.4-18.3c-2.1-3.1-4-6.4-5.8-9.7c-0.9-1.7-1.7-3.4-2.4-5.1
				c-0.6-1.4-1.2-2.7-1.7-4.1c-0.9-1.5-0.5-2.9,1.2-4.2c0.9-0.4,1.8-0.8,2.7-1.2c-11-16.2-17.9-34.6-20.2-54
				c-0.9,0.4-1.7,0.7-2.6,1.1c1.8,2.3,3.6,4.6,5.5,7c1.1,1.4,3.2-0.4,2.4-1.8c-17.4-31.1-26.7-66.1-26.9-101.7
				c-0.9,0.4-1.7,0.7-2.6,1.1c6.8,5.5,12,12.3,15.2,20.4c0.9-0.4,1.8-0.8,2.7-1.2c-7.8-16.5-9.4-35.1-4.8-52.7c-1,0-1.9,0-2.9,0
				c20.5,58.7,40.9,117.3,61.4,176c0.6,1.8,3.5,1,2.9-0.8c-10.3-30.1-15.4-61.7-15.1-93.6c-0.9,0.4-1.7,0.7-2.6,1.1
				c6.1,5.5,9.9,12.4,11.3,20.5c0.3,1.7,3,1.3,2.9-0.4c-0.3-6.1-0.7-12.3-1-18.4c-0.8,0.4-1.5,0.9-2.3,1.3c5.3,3.4,6.3,12.4,8,18
				c1.8,6,3.6,12,5.5,18.1c3.7,12.4,7.5,24.7,11.2,37.1c7.5,24.7,15,49.5,22.5,74.2c0.6,1.8,3.5,1.1,2.9-0.8
				c-8.1-26.6-16.1-53.3-24.2-79.9c-3.9-13-7.9-26-11.8-39c-2-6.7-4-13.3-6-20c-1.3-4.1-2.8-7.8-6.5-10.2c-0.9-0.6-2.3,0.2-2.3,1.3
				c0.3,6.1,0.7,12.3,1,18.4c1-0.1,2-0.3,2.9-0.4c-1.4-8.6-5.6-16.1-12.1-21.9c-1-0.9-2.5-0.3-2.6,1.1c-0.3,32.1,4.8,64,15.2,94.4
				c1-0.3,1.9-0.5,2.9-0.8c-20.5-58.7-40.9-117.3-61.4-176c-0.5-1.3-2.5-1.5-2.9,0c-4.8,18.5-3,37.8,5.1,55c0.7,1.5,3.4,0.4,2.7-1.2
				c-3.4-8.6-8.7-15.9-16-21.7c-1-0.8-2.6-0.3-2.6,1.1c0.2,36.1,9.6,71.7,27.3,103.2c0.8-0.6,1.6-1.2,2.4-1.8
				c-1.8-2.3-3.6-4.6-5.5-7c-0.8-1-2.7-0.2-2.6,1.1c2.3,20,9.3,38.9,20.6,55.5c1,1.4,3,0.5,2.7-1.2c-0.5-2.8-3.8-3.8-6.1-2.1
				c-4.2,3-0.1,10.1,1.4,13.5c5.7,12.7,14.2,23.8,24.7,32.9C690,1137.1,692.1,1135,690.6,1133.8L690.6,1133.8z"/>
		</g>
	</g>
	<g>
		<g>
			<path class="st0" d="M586,909.5c-1.3-18.8,32.8-8,42.3-6.2c15.6,2.9,31.1,5.8,46.7,8.7c31.1,5.8,62.3,11.6,93.4,17.4
				c1.9,0.4,2.7-2.5,0.8-2.9c-35.7-6.7-71.3-13.3-107-20c-17.5-3.3-35-6.6-52.5-9.8c-6.3-1.2-13.6-2.5-19.5,0.8
				c-4.5,2.4-7.5,6.8-7.1,12C583.1,911.4,586.2,911.4,586,909.5L586,909.5z"/>
		</g>
	</g>
	<g>
		<g>
			<path class="st0" d="M747.7,926.1c10.4,1.1,16.8-8.8,24.9-13.6c6.9-4,12.9-0.9,20,0.5c7.9,1.6,16,1.8,24,0.8c1.9-0.2,1.9-3.2,0-3
				c-9,1.1-18,0.7-26.8-1.5c-5.3-1.4-10.1-3.1-15.4-1c-9.4,3.6-15.8,16-26.7,14.8C745.8,922.9,745.8,925.9,747.7,926.1L747.7,926.1z
				"/>
		</g>
	</g>
	<g>
		<g>
			<path class="st0" d="M938.4,1118.4c24-8.4,48.2-16.8,73-22.8c25.9-6.2,52-8.7,78.6-7.9c26.3,0.8,52.4,3.8,78.6,6.2
				c26.3,2.5,52.6,4.9,78.9,7.4c30.2,2.8,60.5,5.6,90.7,8.5c1.9,0.2,1.9-2.8,0-3c-53.9-5-107.8-10-161.8-15.1
				c-51.9-4.8-104.1-11.9-155.8-1.2c-28.4,5.9-55.8,15.5-83.1,25C935.8,1116.1,936.6,1119,938.4,1118.4L938.4,1118.4z"/>
		</g>
	</g>
	<g>
		<g>
			<path class="st0" d="M1044.1,1020c17.9-3.8,34.7-11.3,51.6-18.1c18.1-7.2,36.4-12.2,55.8-13.9c19.6-1.7,39.3-0.7,58.8,0.5
				c19.6,1.2,39.2,2.6,58.9,4c22.9,1.7,45.9,3.6,68.8,5.6c1.9,0.2,1.9-2.8,0-3c-40.6-3.6-81.2-6.7-121.9-9.3
				c-38.7-2.5-76.8-3.5-113.7,10.2c-19.6,7.3-38.6,16.6-59.2,21C1041.5,1017.5,1042.2,1020.4,1044.1,1020L1044.1,1020z"/>
		</g>
	</g>
	<g>
		<g>
			<path class="st0" d="M1274.6,904.7c14.3-10.9,29.4-21.6,45.4-29.8c7.8-4,16.2-7.2,25-7.9c9.5-0.8,19,1.1,28.3,2.3
				c18.9,2.3,37.9,3.7,56.9,4.9c12.6,0.8,28.6,2.6,37.5-8.4c1.2-1.5-0.9-3.6-2.1-2.1c-10.1,12.5-31.4,7.8-45.2,6.9
				c-19-1.3-37.8-3.1-56.7-5.5c-8.1-1-16.1-1.8-24.2-0.3c-8,1.4-15.5,4.6-22.6,8.4c-15.4,8.2-30,18.4-43.9,29
				C1271.6,903.3,1273.1,905.9,1274.6,904.7L1274.6,904.7z"/>
		</g>
	</g>
	<g>
		<g>
			<path class="st0" d="M724.1,888.2c14.2-10.7,28.5-21.3,42.7-32c13.6-10.2,26.3-20.9,44.1-21.8c16.8-0.8,34,1.1,50.7,2.5
				c18,1.5,35.9,3.5,53.7,6c15,2.1,32.9,7.7,47.1-0.1c1.7-0.9,0.2-3.5-1.5-2.6c-7.3,4-15.4,4-23.5,3c-8.7-1.1-17.4-2.6-26.1-3.8
				c-16.8-2.3-33.7-4.2-50.7-5.6c-16.7-1.4-34-3.4-50.7-2.4c-15.5,0.9-27,8.9-39.1,18c-16.1,12-32.1,24.1-48.2,36.1
				C721.1,886.8,722.6,889.4,724.1,888.2L724.1,888.2z"/>
		</g>
	</g>
	<g>
		<g>
			<path class="st0" d="M1286.7,993.9c0.9-6.6,2.2-13,4.1-19.4c0.9-3,1.8-6,3-9c0.7-1.8,2.6-4.8,5.2-4.1c1.3,0.4,1.9,4.9,2,5.8
				c0.2,1.6,2.4,2.1,2.9,0.4c4.7-15.3,10.1-32.1,24.5-41c-0.8-0.4-1.5-0.9-2.3-1.3c0,2.5-0.1,5.1-0.1,7.6c0,1.4,2.1,2.1,2.8,0.8
				c8.9-18.5,18.6-37.9,36.6-49.1c-0.7-0.6-1.5-1.1-2.2-1.7c-9,23.3-19.5,46-31.4,68c-0.8,1.4,1.2,3.2,2.4,1.8
				c6.7-8,13.5-16,22.3-21.8c-0.7-0.7-1.4-1.4-2.1-2.1c-11.1,23.4-23.2,46.2-36.5,68.4c-1,1.7,1.6,3.2,2.6,1.5
				c13.2-22.2,25.4-45,36.5-68.4c0.6-1.2-0.7-3-2.1-2.1c-9,6-16,14.1-22.9,22.3c0.8,0.6,1.6,1.2,2.4,1.8
				c12-22.2,22.6-45.1,31.7-68.7c0.5-1.2-1.2-2.3-2.2-1.7c-18.5,11.5-28.5,31.2-37.7,50.2c0.9,0.3,1.9,0.5,2.8,0.8
				c0-2.5,0.1-5.1,0.1-7.6c0-1.1-1.3-1.9-2.3-1.3c-15,9.3-20.9,26.7-25.8,42.8c1,0.1,2,0.3,2.9,0.4c-0.5-5.1-5.1-13.8-10.7-7.3
				c-2.8,3.3-3.9,8.7-5.1,12.8c-2,6.6-3.4,13.4-4.4,20.3C1283.6,995,1286.4,995.8,1286.7,993.9L1286.7,993.9z"/>
		</g>
	</g>
	<g>
		<g>
			<path class="st0" d="M588,825.1c7.8-4.2,15.7-8.4,24.3-10.7c9.1-2.4,18.1-1.6,27.2-0.4c18.1,2.4,36.2,4.8,54.2,7.2
				c1.9,0.3,1.9-2.7,0-3c-19.3-2.6-38.7-5.4-58-7.7c-8.9-1.1-17.4-1.1-26,1.4c-8.2,2.4-15.8,6.5-23.3,10.5
				C584.7,823.5,586.3,826,588,825.1L588,825.1z"/>
		</g>
	</g>
	<g>
		<g>
			<path class="st0" d="M157.8,480.8c6.7-10.3,21.1-4.9,30-1.3c10.3,4.2,20.7,7.3,30.3-0.1c4.9-3.8,8.9-8.4,15-10.2
				c6.3-2,13.3-1.1,19.7,0.4c12,2.9,23.1,8.8,35.7,9c1.9,0,1.9-3,0-3c-14.5-0.3-27.1-8.2-41.3-10.1c-5.5-0.7-11.1-0.6-16.4,1.3
				c-5.3,1.9-9.1,5.8-13.3,9.3c-13.2,11-26-0.3-39.7-3.3c-8.2-1.8-17.6-1.2-22.6,6.5C154.2,480.9,156.8,482.4,157.8,480.8
				L157.8,480.8z"/>
		</g>
	</g>
	<g>
		<g>
			<path class="st0" d="M1196.3,146.8c7.2-6.1,17.3-4.9,25.2-1c6,2.9,10.9,8.8,17.9,9.1c6.5,0.2,11.9-4.2,17.4-7.1
				c3.7-1.9,7.5-3.2,11.7-2.3c4.5,0.9,8.4,3.5,12.5,5.3c13.5,5.9,22.5-2.3,33.9-8.8c3.2-1.8,6.6-3.4,10.3-3.7
				c4.7-0.4,8.9,1.7,13.1,3.5c6.6,2.8,11.6,3.9,18.3,1.2c6.9-2.7,12.5-2.3,19.4,0.2c4.4,1.6,8.6,3.6,13.2,4.6
				c6.9,1.6,14.3,1.2,19.5-4.1c1.4-1.4-0.8-3.5-2.1-2.1c-6.7,6.8-16.9,3.6-24.6,0.6c-7.8-3-15.8-6.2-24.1-3.1
				c-5.2,2-8.7,3.4-14.3,1.5c-3.8-1.3-7.3-3.4-11.2-4.5c-5.9-1.8-11.4-0.8-16.8,1.9c-6.2,3.1-11.6,8-18.1,10.6
				c-8.6,3.4-15.3-1.1-23.1-4.4c-5.7-2.4-11.1-2.8-16.8-0.3c-6.9,3.1-13.6,9.9-21.7,7c-4.3-1.5-7.7-5-11.6-7.2
				c-3.3-1.8-6.9-3.1-10.6-3.8c-7.1-1.3-14-0.1-19.6,4.6C1192.7,146,1194.9,148.1,1196.3,146.8L1196.3,146.8z"/>
		</g>
	</g>
	<g>
		<g>
			<path class="st0" d="M1232.3,215.1c1.9,0,1.9-3,0-3C1230.4,212.1,1230.4,215.1,1232.3,215.1L1232.3,215.1z"/>
		</g>
	</g>
	<g>
		<g>
			<path class="st0" d="M1252.3,226c4.7-8.5,15.8-4.4,22.7-1.6c6.9,2.8,13.1,4.5,20.4,2c6-2.1,11.4-6.1,17.6-7.5
				c8.6-2,13.5,5.3,21.3,7c12.2,2.7,24.5-10.9,36-5.2c3.2,1.6,5.4,3.7,9.2,3.4c3.5-0.2,6.7-1.9,10.1-2.7c9.5-2.2,19.4-0.5,27.9,4.2
				c1.7,0.9,3.2-1.7,1.5-2.6c-5.4-3-11.2-4.8-17.3-5.4c-3.1-0.3-6.3-0.2-9.4,0.3c-3.7,0.5-7.1,2.1-10.7,2.8c-4.9,0.9-7-1.5-11-3.2
				c-2-0.8-4.2-1.2-6.3-1.1c-5,0.2-9.8,2.3-14.4,4c-5.9,2.2-12.2,4.3-18.2,1.3c-5.1-2.5-9.1-6.3-15.1-6.3
				c-12.4,0.1-21.1,12-34.2,8.4c-9.7-2.7-25.3-12.2-32.5,0.6C1248.8,226.2,1251.4,227.7,1252.3,226L1252.3,226z"/>
		</g>
	</g>
	<g>
		<g>
			<path class="st0" d="M1155.3,345.7c7.1-5.6,15.2-5.3,23-1.7c4.3,2,8.9,3.9,13.4,1.2c2.6-1.6,4.3-4.1,7.4-5c3.3-1,6.8-0.3,10,0.5
				c5.7,1.4,11.2,3.9,17.1,4.3c7,0.5,13.4-2.5,20.2-3.2c7.3-0.7,12.4,3.7,19.2,4.7c6.6,0.9,11.7-4.4,18.3-3.4
				c8,1.2,15.9,3.9,23.8,5.9c1.9,0.5,2.7-2.4,0.8-2.9c-8.3-2.1-16.9-5.3-25.4-6.2c-7.2-0.8-12.4,5.1-19.6,2.9
				c-6.7-2-11.5-4.9-18.7-3.9c-7.7,1.1-14.7,4.1-22.6,2.4c-6.1-1.3-12-4.2-18.3-4.6c-2.3-0.1-4.7,0.1-6.9,1
				c-2.8,1.1-4.3,3.4-6.9,4.9c-6,3.5-14.1-3.9-20.5-4.4c-6.1-0.5-11.7,1.6-16.5,5.3C1151.6,344.8,1153.8,346.9,1155.3,345.7
				L1155.3,345.7z"/>
		</g>
	</g>
	<g>
		<g>
			<path class="st0" d="M582,127.5c1.9,0,1.9-3,0-3C580.1,124.5,580.1,127.5,582,127.5L582,127.5z"/>
		</g>
	</g>
	<g>
		<g>
			<path class="st0" d="M590.8,129.8c1.8-8.9,13.6-3.2,17.9-0.5c4.9,3.1,10.1,5.9,16.1,4.2c6.5-1.9,10.9-7.5,18.1-7.9
				c6.8-0.3,13.4,2.8,19.8,4.8c5.5,1.7,11.3,2.9,17,1.5c6.7-1.6,12.4-6.3,19.2-7.5c13.4-2.3,25.5,8.6,39.1,4.4
				c1.8-0.6,1.1-3.5-0.8-2.9c-14.2,4.5-27.7-8.1-42.1-3.6c-7.4,2.3-13.6,7.5-21.7,7.2c-7.5-0.3-14.3-3.9-21.4-5.7
				c-5.6-1.4-11.3-1.8-16.7,0.7c-3.1,1.4-5.8,3.7-8.9,5.2c-5.1,2.4-9.4,1-14-1.6c-5-2.9-9.3-6.3-15.4-5.8c-4.3,0.3-8.1,2.5-8.9,6.9
				C587.6,130.9,590.5,131.7,590.8,129.8L590.8,129.8z"/>
		</g>
	</g>
	<g>
		<g>
			<path class="st0" d="M599.9,713.7c11.9-5,23.9,3.9,35.9,4.5c6.2,0.3,12.2-1.2,18.3-2.4c7.7-1.5,14.3-1.6,21.7,1.5
				c4.5,1.9,8.6,3.1,13.2,1.3c2.6-1,4.8-2.7,7.4-3.6c2.9-1,5.9-1.2,9-1.2c10.7,0.2,21.4,3.9,31.6-0.9c1.7-0.8,0.2-3.4-1.5-2.6
				c-10.9,5.1-23-0.5-34.5,0.7c-5.5,0.6-9.1,3.8-14.2,5.3c-6.1,1.8-12.1-3.4-18.1-4.3c-12.9-2-25.1,5.2-38.1,2.6
				c-10.4-2.1-20.9-8.2-31.5-3.7C597.4,711.6,598.2,714.5,599.9,713.7L599.9,713.7z"/>
		</g>
	</g>
	<circle class="st1" cx="383.7" cy="550.6" r="15.8"/>
	<circle class="st1" cx="1303.4" cy="446.7" r="11.1"/>
	<circle class="st1" cx="1203.5" cy="62.9" r="8.2"/>
	<circle class="st1" cx="842.3" cy="772" r="10.2"/>
	<circle class="st2" cx="372.1" cy="191.2" r="11.7"/>
	<circle class="st2" cx="775.5" cy="606.7" r="6.7"/>
	<circle class="st2" cx="1407.9" cy="660.2" r="10.2"/>
	<circle class="st2" cx="296.1" cy="831.4" r="7.6"/>
</g>
<g id="diamod">
	<path class="st3" d="M606.9,248.4c-8.7,17.7-17.5,35.4-26.2,53.1c36,48.3,72,96.5,108,144.8c9.3-14.1,18.5-28.5,27.8-43
		c21.9-34.4,42.8-68.4,62.8-102.1c-6.8-17.3-13.7-34.7-20.5-52c-4.4-2.3-8.8-4.5-13.2-6.8c-42.6,0.1-85.2,0.2-127.7,0.3
		C614.1,244.7,610.5,246.6,606.9,248.4z"/>
	<g>
		<g>
			<path d="M581.9,302.3c7.6-16.7,15.4-33.3,23.4-49.8c0.8-1.7-1.7-3.3-2.6-1.5c-8,16.5-15.8,33.1-23.4,49.8
				C578.5,302.5,581.1,304.1,581.9,302.3L581.9,302.3z"/>
		</g>
	</g>
	<g>
		<g>
			<path d="M579.9,304.1c35.2,48.3,71.1,96,107.7,143.3c1.2,1.5,3.3-0.6,2.1-2.1c-36.4-47.1-72.1-94.6-107.2-142.7
				C581.4,301.1,578.8,302.6,579.9,304.1L579.9,304.1z"/>
		</g>
	</g>
	<g>
		<g>
			<path d="M606,250.8c4.2-2.2,8.3-4.5,12.5-6.7c1.7-0.9,0.2-3.5-1.5-2.6c-4.2,2.2-8.3,4.5-12.5,6.7
				C602.7,249.2,604.3,251.7,606,250.8L606,250.8z"/>
		</g>
	</g>
	<g>
		<g>
			<path d="M621,244.3c31.2,0,62.5,0,93.7,0c1.9,0,1.9-3,0-3c-31.2,0-62.5,0-93.7,0C619.1,241.3,619.1,244.3,621,244.3L621,244.3z"
				/>
		</g>
	</g>
	<g>
		<g>
			<path d="M780.7,300.9c-6.3-16.7-12.8-33.2-19.5-49.8c-0.7-1.8-3.6-1-2.9,0.8c6.7,16.5,13.2,33.1,19.5,49.8
				C778.5,303.5,781.4,302.7,780.7,300.9L780.7,300.9z"/>
		</g>
	</g>
	<g>
		<g>
			<path d="M777.4,302.4c-29.3,48-59.2,95.7-89.7,143c-1.1,1.6,1.5,3.1,2.6,1.5c30.5-47.3,60.4-94.9,89.7-143
				C781,302.3,778.4,300.7,777.4,302.4L777.4,302.4z"/>
		</g>
	</g>
	<g>
		<g>
			<path d="M759.4,248c-3.5-2.2-7-4.5-10.5-6.7c-1.6-1-3.1,1.5-1.5,2.6c3.5,2.2,7,4.5,10.5,6.7C759.6,251.7,761.1,249.1,759.4,248
				L759.4,248z"/>
		</g>
	</g>
	<g>
		<g>
			<path d="M745.5,241c-26.1,0-52.2,0-78.2,0c-1.9,0-1.9,3,0,3c26.1,0,52.2,0,78.2,0C747.4,244,747.4,241,745.5,241L745.5,241z"/>
		</g>
	</g>
	<g>
		<g>
			<path d="M583.1,303.8c17.9-7.7,35.8-15.4,53.7-23.1c1.8-0.8,0.2-3.3-1.5-2.6c-17.9,7.7-35.8,15.4-53.7,23.1
				C579.9,302,581.4,304.6,583.1,303.8L583.1,303.8z"/>
		</g>
	</g>
	<g>
		<g>
			<path d="M606.5,249.9c11,1.7,21.8,4.1,32.5,7.1c1.9,0.5,2.7-2.4,0.8-2.9c-10.7-3.1-21.5-5.4-32.5-7.1
				C605.4,246.7,604.5,249.6,606.5,249.9L606.5,249.9z"/>
		</g>
	</g>
	<g>
		<g>
			<path d="M638.2,256.5c2.4,7.5,4.5,15,6.3,22.7c0.4,1.9,3.3,1.1,2.9-0.8c-1.8-7.7-3.9-15.2-6.3-22.7
				C640.5,253.9,637.6,254.6,638.2,256.5L638.2,256.5z"/>
		</g>
	</g>
	<g>
		<g>
			<path d="M642.8,256.8c26.8,0,53.5,0,80.3,0c1.9,0,1.9-3,0-3c-26.8,0-53.5,0-80.3,0C640.9,253.8,640.9,256.8,642.8,256.8
				L642.8,256.8z"/>
		</g>
	</g>
	<g>
		<g>
			<path d="M721.8,257.4c-1,5.5-2,11.1-3,16.6c-0.3,1.9,2.6,2.7,2.9,0.8c1-5.5,2-11.1,3-16.6C725,256.3,722.1,255.5,721.8,257.4
				L721.8,257.4z"/>
		</g>
	</g>
	<g>
		<g>
			<path d="M646.1,279.4c23.4,0,46.8,0,70.3,0c1.9,0,1.9-3,0-3c-23.4,0-46.8,0-70.3,0C644.2,276.4,644.2,279.4,646.1,279.4
				L646.1,279.4z"/>
		</g>
	</g>
	<g>
		<g>
			<path d="M726,256.8c10.9-2.3,21.7-4.6,32.6-6.9c1.9-0.4,1.1-3.3-0.8-2.9c-10.9,2.3-21.7,4.6-32.6,6.9
				C723.3,254.3,724.1,257.2,726,256.8L726,256.8z"/>
		</g>
	</g>
	<g>
		<g>
			<path d="M721,278.5c10.1,1.6,19.5,7.3,28.7,11.6c9.8,4.6,19.5,9.2,29.3,13.8c1.7,0.8,3.3-1.8,1.5-2.6
				c-10.4-4.9-20.7-9.7-31.1-14.6c-8.8-4.2-17.9-9.5-27.6-11.1C719.9,275.3,719.1,278.2,721,278.5L721,278.5z"/>
		</g>
	</g>
	<g>
		<g>
			<path d="M647,284c13,53.6,25.9,107.3,38.9,160.9c0.5,1.9,3.3,1.1,2.9-0.8c-13-53.6-25.9-107.3-38.9-160.9
				C649.4,281.3,646.5,282.1,647,284L647,284z"/>
		</g>
	</g>
	<g>
		<g>
			<path d="M716.8,287.6c-12.2,51.6-22.3,103.8-30.1,156.3c-0.3,1.9,2.6,2.7,2.9,0.8c7.8-52.5,17.9-104.6,30.1-156.3
				C720.2,286.5,717.3,285.7,716.8,287.6L716.8,287.6z"/>
		</g>
	</g>
	<g>
		<g>
			<path d="M717.8,187.5c4.5-11.5,7-23.6,7.4-36c0.1-1.9-2.9-1.9-3,0c-0.4,12.1-2.9,23.9-7.3,35.2
				C714.2,188.5,717.1,189.2,717.8,187.5L717.8,187.5z"/>
		</g>
	</g>
	<g>
		<g>
			<path d="M738.3,189.5c9.6-10.9,20.4-20.5,32.5-28.6c1.6-1.1,0.1-3.7-1.5-2.6c-12.3,8.2-23.4,18-33.1,29.1
				C734.9,188.8,737,190.9,738.3,189.5L738.3,189.5z"/>
		</g>
	</g>
	<g>
		<g>
			<path d="M758,208c12.4-3.7,25.2-5.1,38.1-4.1c1.9,0.1,1.9-2.9,0-3c-13.2-1-26.2,0.4-38.9,4.2C755.4,205.7,756.1,208.6,758,208
				L758,208z"/>
		</g>
	</g>
	<g>
		<g>
			<path class="st0" d="M547.3,137.9c1.2,19.8-9.9,38.7-27.7,47.3c-1,0.5-0.9,2,0,2.6c16.3,9.8,23.8,27.8,28.1,45.5
				c0.5,1.9,3.3,1.1,2.9-0.8c-4.5-18.5-12.5-37.2-29.5-47.3c0,0.9,0,1.7,0,2.6c18.7-9.1,30.5-29.2,29.2-49.9
				C550.2,136,547.2,136,547.3,137.9L547.3,137.9z"/>
		</g>
	</g>
	<g>
		<g>
			<path class="st0" d="M548.4,137.9c-1.3,20.8,10.5,40.9,29.2,49.9c0-0.9,0-1.7,0-2.6c-17.1,10.2-25.1,28.9-29.6,47.5
				c-0.5,1.9,2.4,2.7,2.9,0.8c4.3-17.8,11.8-35.9,28.2-45.7c0.9-0.5,1-2.1,0-2.6c-17.8-8.6-29-27.5-27.8-47.3
				C551.5,136,548.5,136,548.4,137.9L548.4,137.9z"/>
		</g>
	</g>
</g>
<g id="leg_right">
	<path d="M1035.3,888.6c3.5-1.5,8.3-3.7,13.8-6.8c9.2-5.1,13.8-7.7,16.6-11.8c3.6-5.4,2.2-8.3,6.9-13.7c0.7-0.9,4-4.4,8.3-6.3
		c7.4-3.1,14.3,0.6,25.8,4.7c10.6,3.8,18.9,5.6,35.5,9.3c6.6,1.5,14.6,3,26.2,6.6c3.3,1,5.9,1.9,7.7,2.5c0.2,2.1,0.3,7.5-3.2,12.4
		c-1.6,2.2-3.8,4-7.3,5.6c-8.1,3.8-15.8,3.1-22.3,2.8c-14-0.6-8.2,1.4-41.2,2c-7.2,0.1-13.1,0.1-17.2,0.1
		c-5.1,3.5-10.2,7.1-15.4,10.8c-8.8,6.4-17.2,12.8-25.2,19.1C1041.3,913.5,1038.3,901,1035.3,888.6z"/>
	<path class="st3" d="M993.6,760.6c-7.2,3.8-8,5.2-34.8,28c-41.8,35.5-46.4,37.4-84.3,70.5c-36.3,31.6-43.1,39.5-50,49.9
		c-17.2,26.3-21,48.3-22.1,59c-1.5,14.4-3.5,34.4,9.2,50.2c8,9.9,18.4,14,21.9,15.3c10.5,4,19.1,3.5,34.6,2.4
		c20.6-1.5,36.3-5.5,42.5-7.2c6.8-1.9,22.6-6.6,42.4-16.4c18.6-9.2,26.6-16,52-33.1c11.3-7.6,28-18.7,49-31.5
		c1.3-10,0.2-17.8-0.9-22.7c-2.6-11.6-7.9-19.6-13.8-28.4c-4.8-7.2-9.4-12.7-12.6-16.3c7.5-5.7,17.3-13.9,27.6-24.9
		c6.9-7.4,17.8-19.2,26.9-35.8c11.2-20.4,22.4-41,15.2-55.2C1085.1,742.1,1031.3,741.1,993.6,760.6z"/>
	<path class="st4" d="M1083.2,771.5c-5.7,13.2-15.1,31.9-30.1,51.9c-21.8,28.9-43.8,44.9-77,68.6c-93.9,67-119.1,82.3-116.3,88.7
		c3.8,8.7,56.7-6.9,64.4-9.2c56.2-16.6,97.6-42.2,123.5-60.9c-6.6-10.1-13.2-20.2-19.8-30.2c8.1-5.8,19.3-15,29.8-28.7
		c5.8-7.5,14.6-19.1,20.3-36.6C1083.8,797.7,1084,782.2,1083.2,771.5z"/>
	<g>
		<g>
			<path d="M993.2,760.5c-35.6,26.5-70.3,54.3-103.7,83.4c-16,13.9-32,27.8-47,42.7c-13.3,13.2-25.7,27.8-33.2,45.2
				c-7.8,18-10,38.8-8.1,58.3c1.6,16.1,7.5,32.3,22.2,40.7c15.4,8.7,34.8,7.8,51.8,6c20.9-2.1,41.5-7.2,61-15.1
				c43.5-17.7,77.6-50.8,118.7-72.7c1.7-0.9,0.2-3.5-1.5-2.6c-34.3,18.3-63.5,44.7-97.9,63c-18,9.6-37.4,16.6-57.4,20.9
				c-18.5,3.9-39.3,6.9-58.1,3.3c-8.8-1.7-17.3-5.3-23.6-11.9c-6.1-6.5-9.4-15-11.1-23.7c-3.7-18.9-2-40.3,4.2-58.5
				c6.2-18.2,18.3-33.5,31.5-47.1c13.7-14.1,28.7-27.1,43.4-40c35.5-31.2,72.3-61,110.3-89.2C996.2,762,994.8,759.4,993.2,760.5
				L993.2,760.5z"/>
		</g>
	</g>
	<g>
		<g>
			<path d="M895.2,965.5c32.8-12.7,62.5-31.7,90.7-52.5c13.9-10.2,27.6-20.8,41.2-31.4c13.4-10.5,26.2-21.6,36.6-35.1
				c1.2-1.5-1.4-3-2.6-1.5c-10.6,13.8-23.9,24.9-37.5,35.6c-13.4,10.5-26.9,20.9-40.7,31c-27.6,20.2-56.5,38.8-88.5,51.1
				C892.6,963.3,893.4,966.2,895.2,965.5L895.2,965.5z"/>
		</g>
	</g>
	<g>
		<g>
			<path d="M1025.6,881.3c19.3,16.2,29.5,41.3,26.8,66.4c-0.2,1.9,2.8,1.9,3,0c2.7-25.8-7.9-51.8-27.7-68.5
				C1026.3,877.9,1024.2,880,1025.6,881.3L1025.6,881.3z"/>
		</g>
	</g>
	<g>
		<g>
			<path d="M1052.2,919.8c5.7-1.7,10.7-6.5,15.5-9.9c6-4.2,11.9-8.4,17.9-12.6c1.6-1.1,0.1-3.7-1.5-2.6c-5.4,3.8-10.9,7.7-16.3,11.5
				c-5,3.5-10.5,8.9-16.4,10.7C1049.5,917.4,1050.3,920.3,1052.2,919.8L1052.2,919.8z"/>
		</g>
	</g>
	<g>
		<g>
			<path d="M1035.7,890c11.3-4.7,21.7-11.1,31.1-19c1.5-1.3-0.7-3.4-2.1-2.1c-8.9,7.6-18.9,13.7-29.7,18.2
				C1033.2,887.9,1034,890.8,1035.7,890L1035.7,890z"/>
		</g>
	</g>
	<g>
		<g>
			<path d="M1065.7,869.7c1.9,0,1.9-3,0-3C1063.8,866.7,1063.8,869.7,1065.7,869.7L1065.7,869.7z"/>
		</g>
	</g>
	<g>
		<g>
			<path d="M1069.3,866.1c1.7-4,3.5-8.4,6.7-11.5c4.3-4.2,9.5-3.6,15-2.4c10.2,2.3,20.2,5.5,30.2,8.4c9.3,2.6,18.6,4.9,28.2,6
				c5.6,0.6,10.3,1.3,15.3,3.8c3.7,1.8,6.9,3.6,11,4c1.9,0.2,1.9-2.8,0-3c-5.5-0.5-9.8-4.3-15-6c-5.2-1.7-11-1.6-16.4-2.5
				c-11.8-1.9-23.3-5.5-34.7-8.9c-5.6-1.6-11.2-3.2-16.9-4.5c-4.2-0.9-8.6-2-12.8-0.7c-7.3,2.2-10.8,10-13.5,16.5
				C1065.7,867.1,1068.6,867.9,1069.3,866.1L1069.3,866.1z"/>
		</g>
	</g>
	<g>
		<g>
			<path d="M1085.2,899.5c21.4-3.2,42.6-3.7,64.2-4.1c7.5-0.1,15.5-1,21.5-5.9c5.1-4.2,8-10.3,6.6-16.8c-0.4-1.9-3.3-1.1-2.9,0.8
				c1.9,9.1-6.3,15.8-14.4,17.8c-8.3,2-17.3,1-25.8,1.2c-16.8,0.3-33.4,1.7-50,4.2C1082.5,896.9,1083.4,899.8,1085.2,899.5
				L1085.2,899.5z"/>
		</g>
	</g>
</g>
<g id="leg_left">
	<path d="M1161.1,879.6c7.4-5.3,14.9-10.6,22.3-15.9c0.5-3.4,2.1-10.8,8.2-17.1c1.8-1.9,6-6.3,12.3-7.5c6.6-1.3,11.7,1.7,17.4,4.3
		c9.2,4.2,18.1,5.8,35.7,9.2c13.9,2.6,20.9,3.9,30.9,3.4c13.6-0.8,23.3-4.4,29.1,1.3c0.6,0.6,3.1,3.3,2.9,6.6
		c-0.3,4.2-4.8,6.9-8.4,9c-15.7,9-24.5,11.6-24.5,11.6c-22.2,6.5-33.4,9.8-43,10.6c-7.8,0.6-18.9,0.9-32.3-1.2
		c-3.9,13.4-15.7,22-26.8,21.3C1170.6,914.3,1157.4,898.2,1161.1,879.6z"/>
	<path class="st3" d="M1017.5,791.2c2.2-6.7,6.3-15.2,14-18c5-1.8,9.6-0.6,11.1-0.2c9.3,2.3,28.4-1,66.5-7.5
		c18.9-3.2,42.8-7.9,70.3-14.9c0.1,5.1,0,11.8-0.3,19.6c-0.7,17.5-2.5,30.7-2.9,33.8c-1.7,12.4-4.7,33-13.8,58
		c-2.3,6.4-4.6,11.7-6.2,15.3c3.9,1.8,8.1,4.2,12.2,7.6c16.9,13.5,21.8,32.6,23.4,40.7c-2.4,2.9-6,7.2-10.6,12.1
		c-18.6,19.8-35.8,30.9-68.6,51.2c-20.2,12.5-35,21.6-58.7,35.6c-28.8,17-52.1,30.2-81.1,38.5c-7.2,2.1-18.6,4.9-33,3.4
		c-7-0.7-19.6-2-31.7-10.8c-15.5-11.2-20.4-27.6-22.4-34.8c-4.5-16.1-2.8-31.2,1.4-46.9c2.9-11,13.4-47.5,49.9-88.6
		c7.3-8.2,28.1-26.7,69.5-63.7c10-8.9,18.2-16.2,23.7-21C1026,797.4,1021.8,794.3,1017.5,791.2z"/>
	<path class="st4" d="M1153.5,763.5c-2.3,8.8-6,21.5-11.6,36.4c-51.1,135.4-165.3,193.9-156,208.5c6.8,10.8,72-16.1,119-44.4
		c35.2-21.2,61.4-43.9,78.9-61c-2.8-4.1-7.1-9.7-13.6-15c-6.3-5.1-12.3-8.2-16.8-10.1c3.1-4.5,7.2-11.3,10.7-20
		c2.3-5.6,4.3-11.6,6.9-23.8c4.2-19.3,5.9-34.6,6.4-39.4c1.2-11.5,2.3-26.4,2.1-44C1170.8,754.9,1162.2,759.2,1153.5,763.5z"/>
	<g>
		<g>
			<path d="M1178,750.6c0.1,18.9-1.1,37.8-3.7,56.6c-2.4,16.9-5.4,34.3-11.6,50.3c-6.7,17.3-18.2,29.9-32.1,41.8
				c-14.2,12.1-28.5,24-42.8,35.9c-16.4,13.7-32.9,27.3-49.3,41c-1.5,1.2,0.6,3.3,2.1,2.1c30.1-25,60.2-49.9,90.1-75.2
				c13.2-11.2,25.2-22.8,32.4-38.9c7-15.6,10.4-32.7,13.1-49.5c3.4-21.2,5-42.6,4.8-64.1C1181,748.6,1178,748.6,1178,750.6
				L1178,750.6z"/>
		</g>
	</g>
	<g>
		<g>
			<path d="M1019.2,794c4.1,2.2,8.2,4.4,12.4,6.6c1.7,0.9,3.2-1.7,1.5-2.6c-4.1-2.2-8.2-4.4-12.4-6.6
				C1019,790.5,1017.5,793.1,1019.2,794L1019.2,794z"/>
		</g>
	</g>
	<g>
		<g>
			<path d="M1031.6,799.4c-35.6,29-73,57.7-102.7,92.9c-25.6,30.3-46.7,68.7-46.6,109.4c0,17.9,4.9,36.6,18.1,49.3
				c13.2,12.8,32.3,17.8,50.3,16.9c22-1.1,42.9-9.8,62.5-19.4c21-10.3,40.9-22.5,60.9-34.6c41.2-25,87.2-48.3,118.1-86.4
				c1.2-1.5-0.9-3.6-2.1-2.1c-25.9,32-62.3,52.5-97,73.5c-19.1,11.6-38,23.4-57.5,34.4c-19.1,10.8-39,21.1-60.1,27.2
				c-19.8,5.7-41.9,6.9-60.6-3c-18-9.4-27.2-27.6-29.1-47.4c-3.7-40,16.4-79.8,40.7-110.2c30.3-37.9,69.9-68.1,107.3-98.5
				C1035.2,800.3,1033.1,798.2,1031.6,799.4L1031.6,799.4z"/>
		</g>
	</g>
	<g>
		<g>
			<path d="M1155.5,878.5c18.8,9,31.9,26.8,35,47.4c0.3,1.9,3.2,1.1,2.9-0.8c-3.1-21.3-16.9-40-36.3-49.2
				C1155.3,875.1,1153.8,877.7,1155.5,878.5L1155.5,878.5z"/>
		</g>
	</g>
	<path class="st5" d="M1192.3,868.4"/>
	<g>
		<g>
			<path d="M1161.5,881.1c4-1.6,7.2-4.3,10.6-6.9c4-3.1,8.1-6.1,12.1-9.2c1.5-1.2,0-3.8-1.5-2.6c-3.6,2.7-7.2,5.4-10.8,8.2
				c-3.5,2.7-7,6-11.2,7.6C1159,878.9,1159.7,881.8,1161.5,881.1L1161.5,881.1z"/>
		</g>
	</g>
	<g>
		<g>
			<path d="M1185.7,863.8c2-5.9,4.4-11.7,7.6-17.1c4.4-7.4,11-6.6,18.4-4.7c11.5,2.9,22.5,7.3,34.1,9.9c22.5,5,45.6,6.7,68.6,5.2
				c1.9-0.1,1.9-3.1,0-3c-27.1,1.8-54.4-1-80.6-8.4c-6.3-1.8-12.4-4.1-18.7-5.9c-4.8-1.4-10.5-3-15.5-2c-4.5,0.9-7.1,4.3-9.3,8.1
				c-3.1,5.4-5.5,11.2-7.5,17.1C1182.2,864.8,1185.1,865.6,1185.7,863.8L1185.7,863.8z"/>
		</g>
	</g>
	<g>
		<g>
			<path d="M1190,912.1c7.5-5.7,14.9-11.4,22.4-17.1c1.5-1.2,0-3.8-1.5-2.6c-7.5,5.7-14.9,11.4-22.4,17.1
				C1187,910.7,1188.5,913.3,1190,912.1L1190,912.1z"/>
		</g>
	</g>
	<g>
		<g>
			<path d="M1212.3,894.3c24.4,5.3,49.3,1.3,72.4-7.5c10.5-4,22.5-8.5,31.5-15.3c6.3-4.7,7.2-13.7-1.1-16.9
				c-1.8-0.7-2.6,2.2-0.8,2.9c4.5,1.7,5,6.6,1.9,10c-1.5,1.7-3.6,2.8-5.6,4c-4.1,2.3-8.3,4.4-12.5,6.4c-8.9,4.2-18.1,7.8-27.6,10.6
				c-18.7,5.4-38.3,7.2-57.5,3C1211.2,891,1210.4,893.9,1212.3,894.3L1212.3,894.3z"/>
		</g>
	</g>
</g>
<g id="torso">
	<path class="st1" d="M951.7,462.4c15.2-12.6,37.9-27.8,68.2-36.8c14.2-4.2,32-9.4,55.6-7.4c36.2,3.1,61.1,20.9,69.9,27.4
		c13.8,10.1,23.2,20.8,29,28.3c1.1,70.1,2.6,140.3,4.5,210.4c0.6,21.6,1.2,43.3,1.9,64.9c-14.2,8.8-34.1,18.7-59.3,24.5
		c-59,13.5-108.1-4.5-128-13.2c-0.1-17.7-1.2-44.3-6.6-76.2c-8.8-52.4-22.5-73.5-31.1-118.6C951.5,542.4,947.4,507.4,951.7,462.4z"
		/>
</g>
<g id="hand_left">
	<path class="st3" d="M1132.5,479.7c-4.9,5.4-5.8,11.5-5.5,34.9c0.2,24.6,1.5,41.4,2.3,60.9c0.6,14.1,1.1,25.3,0.8,39.9
		c-0.3,18.4-1.5,33.5-2.6,43.6c-9.8,11-18.5,19.6-25,25.8c-14.6,13.9-30.5,28.9-54,43c-9.3,5.5-17.3,9.5-22.7,12
		c-4.9-0.8-10.4-2-16.4-3.5c-14.2-3.6-20.1-6.8-30.8-6.8c-3.2,0-13.3,0-14.3,3.6c-0.9,3,4.7,7.7,9.1,10c4.1,2.1,5.9,1.5,10,3.4
		c4.6,2.2,7.6,5.4,9.4,7.8c-1.9,2.7-4.8,6.8-8,12.1c-3.7,6.2-4.5,8.6-8.8,16c-4.5,7.8-6.8,11.7-8.8,13.7c-3.1,2.9-5,3.5-18.9,9.7
		c-13.8,6.2-16.2,7.6-16.2,9.3c0,1.7,2.7,2.1,13.4,6.7c8.7,3.7,9.5,4.5,14,5.8c5.6,1.6,9,2.6,13.1,1.7c6.5-1.3,10.7-6.2,12.5-8.8
		c0.9,0.8,3.1,2.5,6,2.6c2.3,0,4.2-0.9,5.7-2.1c6.3-4.5,9.4-12.8,15.6-22.1c1.1-1.6,5-7.5,11.3-14.1c3.9-4.2,7.5-7.3,10.1-9.4
		c3.5-0.8,8.7-2,14.9-3.8c24.1-6.9,41.5-15.2,56.1-22.2c8.5-4.1,18.1-9.5,37.2-20.2c16.6-9.3,25.2-14.5,32.8-24.7
		c0.8-1.1,4.9-6.6,8.5-14.7c1.1-2.5,5-11.4,7.1-27c1-6.9,1-10.7,1.1-32.3c0.2-27.5,0.2-24.2,0.2-27c-0.1-40.3-2.2-36.7-2.9-73.7
		c-0.1-3.5-0.2-13-3.1-25c-3.1-13-7-18.8-9.2-21.7c-2.8-3.7-6.2-8.1-12-10.6C1153.9,467.8,1139.8,471.6,1132.5,479.7z"/>
	<path class="st6" d="M1164.6,472.4c2.4,7.9,5.3,19.3,7.3,33.1c2.4,16.7,3.3,35.1-2.1,83.2c-4.5,40.2-6.7,60.3-12.5,79.1
		c-8.3,26.8-14.3,46.3-32.6,61.7c-11.8,9.9-24.7,14.5-50.6,23.6c-19,6.7-35.3,10.7-46.5,13.2c-8,10.8-19.9,24.5-36.8,37.5
		c-13.2,10.2-25.9,17.2-36.4,22c1.5,1,7.7,5,16.1,3.9c9.8-1.3,15.1-8.3,16-9.6c1.9,1.4,4.7,2.9,7.8,2.4c6.4-1,9.8-10.1,11.5-14.2
		c3.7-8.5,11.1-20.2,27.7-33c11-2.9,25.9-7.3,43.2-13.9c24.1-9.3,40.3-18.3,57.7-28c27.9-15.6,34.2-22,38.8-28.2
		c8.4-11.3,11.9-22.9,13.4-28c2.7-9.1,3.2-19.3,4.2-39.2c0.7-14.8,0.7-26.2,0.7-34.8c0-14.8-0.3-25.8-0.6-35.3
		c-0.4-13.8-1.2-30-3.2-49.4c-1.5-14.1-2.6-19.7-5.8-26C1177,482.5,1169.7,476.1,1164.6,472.4z"/>
	<g>
		<g>
			<path d="M1131,479.3c-5.2,13-5.8,27-5.5,40.9c0.3,15.3,1.1,30.5,1.8,45.8c1.4,31,2.4,62.1-1.3,93c-0.2,1.9,2.8,1.9,3,0
				c3.6-30.2,2.8-60.7,1.4-91c-0.7-15-1.5-30-1.9-45.1c-0.4-14.5-0.1-29.1,5.4-42.8C1134.6,478.3,1131.7,477.5,1131,479.3
				L1131,479.3z"/>
		</g>
	</g>
	<g>
		<g>
			<path d="M1131.8,656.4c-9.2,5.1-16.6,12.5-23.7,20.2c-7.7,8.3-15.4,16.4-24,23.8c-17.6,15.3-37.4,27.9-58.6,37.7
				c-1.8,0.8-0.2,3.4,1.5,2.6c20.4-9.4,39.5-21.4,56.6-35.9c8.5-7.1,16.3-14.9,23.8-23c7.8-8.5,15.6-17.1,25.8-22.7
				C1135,658,1133.5,655.4,1131.8,656.4L1131.8,656.4z"/>
		</g>
	</g>
	<g>
		<g>
			<path d="M1026.2,738.3c-11-2.3-22.1-4.7-33.1-7.2c-5.5-1.2-11.1-2.7-16.7-3.7c-3.5-0.6-7.2-0.9-10.3,1.1
				c-4.8,3.1-4.8,8.8-0.5,12.2c3.1,2.5,7.1,3.6,10.8,4.8c6,1.9,11.1,4.3,15,9.4c1.2,1.5,3.8,0,2.6-1.5c-3.5-4.5-7.7-7.7-13.1-9.6
				c-3.7-1.3-7.8-2.1-11.2-4c-2.4-1.3-5.5-3.3-3.7-6.9c1.7-3.4,6-3.1,9.1-2.6c8.3,1.2,16.6,3.6,24.9,5.5c8.5,1.9,17,3.7,25.5,5.5
				C1027.3,741.6,1028.1,738.7,1026.2,738.3L1026.2,738.3z"/>
		</g>
	</g>
	<g>
		<g>
			<path d="M989,755.4c-4.4,8.1-8.9,16.1-13.3,24.2c-2.2,3.9-4.1,8.1-6.7,11.9c-2.7,3.9-6.3,5.9-10.5,7.9c-7.9,3.7-16.4,6.7-24,11
				c-3.4,2-5.6,5.6-2.7,9.1c3.6,4.3,10.7,2.6,15.5,1.8c6.6-1.1,12.9-3.3,18.9-6.1c12.5-6,23.1-15.4,30.7-27c1.1-1.6-1.5-3.1-2.6-1.5
				c-6.7,10.4-16,18.8-26.9,24.6c-5.2,2.7-10.8,4.9-16.5,6.2c-3.2,0.8-6.6,1.5-10,1.6c-3.1,0.2-3.9,0.6-5.4-2.5
				c-1.9-1.8-1.7-3,0.5-3.6c0.7-0.3,1.3-0.6,2-0.9c6.4-3,12.9-5.9,19.3-8.9c5-2.3,9.9-4.3,13.3-8.8c4-5.3,6.8-11.6,10-17.4
				c3.7-6.7,7.4-13.4,11-20C992.5,755.2,989.9,753.7,989,755.4L989,755.4z"/>
		</g>
	</g>
	<g>
		<g>
			<path d="M1034.7,777.3c26.7-7.5,52.6-17.5,77.4-29.9c12.3-6.2,24.3-12.9,36-20.3c10.5-6.6,21.6-13.3,29.1-23.4
				c1.1-1.6-1.5-3.1-2.6-1.5c-7.8,10.6-20,17.5-31,24.3c-11.2,6.9-22.8,13.3-34.6,19.2c-24.1,11.9-49.2,21.5-75.1,28.8
				C1032.1,774.9,1032.9,777.8,1034.7,777.3L1034.7,777.3z"/>
		</g>
	</g>
	<g>
		<g>
			<path d="M1133,482c8.3-16.3,29.6-12.6,40.1-1c12.6,14,13.2,34.5,14.6,52.3c3,38.9,3.6,78.1,1.2,117c-1.2,18.9-4,38.9-16.6,53.9
				c-1.2,1.5,0.9,3.6,2.1,2.1c11.3-13.6,15.2-30.8,16.8-48c2.1-22,2.1-44.3,1.9-66.4c-0.2-23.1-1.3-46.3-3.4-69.3
				c-1.6-17.3-4.7-36.4-19-47.9c-12.2-9.8-32.6-9.5-40.4,5.8C1129.5,482.2,1132.1,483.7,1133,482L1133,482z"/>
		</g>
	</g>
	<g>
		<g>
			<path d="M944.6,823c7.3,3.3,16.1,8.3,24.4,8.3c8-0.1,13.9-6.7,19.3-11.7c15.5-14.4,31-28.8,46.5-43.1c1.4-1.3-0.7-3.4-2.1-2.1
				c-13.1,12.2-26.2,24.3-39.3,36.5c-5.8,5.3-11.8,12.9-19.1,16.2c-8.6,3.9-20.4-3.1-28.1-6.6C944.4,819.6,942.9,822.2,944.6,823
				L944.6,823z"/>
		</g>
	</g>
	<g>
		<g>
			<path d="M985.3,820.9c3.3,6.2,10.6,3.7,14.3-0.6c7.3-8.6,13-19,19.2-28.3c1.1-1.6-1.5-3.1-2.6-1.5c-3.9,5.8-7.8,11.6-11.7,17.4
				c-2.2,3.2-11.9,20.5-16.6,11.5C987,817.7,984.4,819.2,985.3,820.9L985.3,820.9z"/>
		</g>
	</g>
	<g>
		<g>
			<path d="M962.1,816c3,1.6,6.7,3.2,10,1.6c1.7-0.9,2.4-2.3,3.2-3.9c1.4-2.7,2.8-4.8,5.4-6.5c1.6-1.1,0.1-3.7-1.5-2.6
				c-2.4,1.6-4.4,3.6-5.8,6.2c-1,1.9-1.6,4.2-4.2,4.4c-1.9,0.2-4-1-5.6-1.8C962,812.6,960.4,815.1,962.1,816L962.1,816z"/>
		</g>
	</g>
</g>
<g id="heda">
	<path class="st3" d="M941.6,244.6c-3.5,7.1-7,19-8.1,22.9c-1.6,5.6-5.2,18.7-7.2,36.1c-1.1,9.6-2.3,20.1-1.3,34
		c0.5,6.6,1.2,17,5.1,29.9c2.6,8.8,6.4,21.5,16.7,34.5c9,11.3,19.3,18.4,27.5,22.7c5.2,0.1,11.5-0.2,18.5-1.5
		c12.6-2.4,22.4-7.1,29-10.9c0.9,5.1,2.1,10.5,3.6,16.1c3.1,11.6,6.9,21.8,10.7,30.6c4.1-0.7,9-1.9,14.2-4.3
		c16.5-7.7,24.4-21.9,27.2-27.8c-1.5-5.8-2.7-12.1-3.8-18.6c-3.8-24.3-2.8-46-0.4-63.6c2.1,0.7,5.5,1.6,9.7,1.4
		c8.2-0.5,13.8-5,16.6-7.4c2.4-2,13.3-11.7,12.9-26.1c-0.1-3.4-0.3-11.7-6.2-16.2c-5.5-4.1-12.9-2.6-18.3-1.5
		c-6.2,1.3-10.8,3.9-13.6,5.7c2.1-6.9,6.5-24.6,0-45.2c-1.4-4.4-10.7-32.4-38.1-44.5C999.1,194.3,954.4,218.9,941.6,244.6z"/>
	<path class="st7" d="M1054.6,245.2c0.8,9.3,1.4,22.8,0,38.8c-4.3,48.5-23.5,82.2-28.5,90.6c-7.6,12.8-20.6,31.4-41.4,49.7
		c6.2-0.8,13.3-2.2,20.9-4.9c20.9-7.4,34.9-20.1,42.5-28.4c0.6,11.1,2.5,24.6,7,39.4c2,6.3,4.2,12.1,6.5,17.3
		c5.3-6.9,10.5-13.8,15.8-20.8c-1.1-6.5-2.1-13.4-2.8-20.5c-2.3-21.5-2.3-41.3-1.1-58.9c4.5,0.1,11-0.3,17.9-3
		c30.2-12,47.4-59.7,31.1-85.7c-0.7-1.1-4.3-6.7-11.7-11.7C1087.9,231.7,1058.8,243.4,1054.6,245.2z"/>
	<path class="st2" d="M934.3,264.5c-2-6.9-4.8-20.1-1.9-36.3c0.9-5,4-21.1,15-33.8c16.1-18.5,36.3-15,62.5-24.4
		c16.6-5.9,39.4-18.3,62.5-47.5c-2.1,10.8-4.2,21.7-6.3,32.5c3.6,1,15.7,3.6,28.1-2.5c20.6-10.1,22.4-34.5,22.5-35.6
		c2.5,5.6,7,18,5,33.8c-1.4,10.8-5.3,18.9-8.1,23.8c1.2,1.3,7.6,7.9,15,6.9c9-1.2,17.4-13.5,15-29.4c2,5.9,4.4,15.6,3.8,27.5
		c-0.8,14.5-5.6,25.4-8.8,31.3c0.8,0.7,5.9,5.3,13.1,4.4c6.3-0.8,11.7-5.4,13.8-11.9c-0.5,6.7-1.7,16.4-5.6,27.5
		c-5.3,15-9.7,16.2-11.9,26.9c-3.5,16.8,5.5,22.5,3.1,37.5c-2,12.6-10.2,20.5-20.6,30.6c-18.9,18.3-40.6,28.2-58.8,33.7
		c0.8-5.6,1.7-11.2,2.5-16.8c2.3,1.4,6.3,3.3,11.3,3.1c10.2-0.4,16.6-9.5,20-14.4c3.9-5.5,10.4-14.9,6.9-25
		c-2.9-8.2-10.6-11.6-11.3-11.9c-9-3.8-20.6-0.4-28.1,8.8c-4.2-16.5-8.3-32.9-12.5-49.4c-14.2-9-28.3-17.9-42.5-26.9
		c-7-1.3-26.1-3.9-47.5,5.6C948.9,242.2,937.9,258.5,934.3,264.5z"/>
	<g>
		<g>
			<path d="M932.8,264.1c-8.5,31.8-13.6,65.6-5.8,98.1c6.4,26.4,22.6,56.5,50.2,65.1c1.8,0.6,2.6-2.3,0.8-2.9
				c-27.7-8.6-43.2-39.9-48.9-66.3c-6.7-31-1.6-63,6.5-93.2C936.2,263.1,933.3,262.3,932.8,264.1L932.8,264.1z"/>
		</g>
	</g>
	<g>
		<g>
			<path d="M979.4,426.8c46.1-4.7,84.6-38,95.4-83.2c0.4-1.9-2.4-2.7-2.9-0.8c-10.5,43.7-47.6,76.4-92.5,81
				C977.5,424,977.4,427,979.4,426.8L979.4,426.8z"/>
		</g>
	</g>
	<g>
		<g>
			<path d="M1072.2,344.4c20.6,12.6,40.7-13.8,42-32.3c0.7-9.8-3.8-17.3-13.5-20.1c-9-2.6-18.8,0.1-25.2,6.9
				c-1.3,1.4,0.8,3.5,2.1,2.1c5.3-5.7,13.3-8.2,21-6.5c4,0.9,8.4,3.1,10.7,6.7c2.5,3.9,2.2,9.3,1.6,13.6
				c-2.4,15.5-19.6,37.7-37.2,26.9C1072.1,340.8,1070.5,343.4,1072.2,344.4L1072.2,344.4z"/>
		</g>
	</g>
	<g>
		<g>
			<path d="M1072,344.2c-3.9,27.7-2.5,55.8,4.1,83c0.5,1.9,3.4,1.1,2.9-0.8c-6.5-26.7-7.9-54.3-4.1-81.4
				C1075.1,343.1,1072.2,342.3,1072,344.2L1072,344.2z"/>
		</g>
	</g>
	<g>
		<g>
			<path d="M1020.3,412.7c3.1,16.2,7.9,31.9,14.5,47.1c0.8,1.8,3.4,0.2,2.6-1.5c-6.5-14.9-11.2-30.4-14.2-46.4
				C1022.8,410,1020,410.8,1020.3,412.7L1020.3,412.7z"/>
		</g>
	</g>
	<g>
		<g>
			<path d="M1036.9,460.2c19.3-3.1,35.6-16.4,42.9-34.5c0.7-1.8-2.2-2.6-2.9-0.8c-6.9,17.2-22.6,29.5-40.8,32.4
				C1034.2,457.6,1035,460.5,1036.9,460.2L1036.9,460.2z"/>
		</g>
	</g>
	<g>
		<g>
			<path d="M1022.7,416.2c4.1,0.2,6.9-2.6,10-5c4.1-3.2,8-6.6,11.6-10.2c6.7-6.7,12.1-14.4,15.6-23.2c0.7-1.8-2.2-2.6-2.9-0.8
				c-3.1,7.8-7.9,14.7-13.7,20.7c-2.6,2.8-5.4,5.3-8.3,7.8c-3.2,2.7-7.8,7.9-12.3,7.7C1020.8,413.1,1020.8,416.1,1022.7,416.2
				L1022.7,416.2z"/>
		</g>
	</g>
	<g>
		<g>
			<path d="M1022.9,414.6c8.5-5.5,16.4-11.8,23.8-18.7c1.4-1.3-0.7-3.5-2.1-2.1c-7.2,6.8-14.9,12.9-23.2,18.3
				C1019.7,413,1021.3,415.6,1022.9,414.6L1022.9,414.6z"/>
		</g>
	</g>
	<g>
		<g>
			<path d="M964.1,269.9c-5.6,25.5-8.8,51.4-9.5,77.5c0,1.5,2,2,2.8,0.8c3.9-6.2,7.8-12.5,11.7-18.7c1-1.6-1.6-3.2-2.6-1.5
				c-3.9,6.2-7.8,12.5-11.7,18.7c0.9,0.3,1.9,0.5,2.8,0.8c0.7-25.8,3.9-51.5,9.4-76.7C967.4,268.8,964.5,268,964.1,269.9
				L964.1,269.9z"/>
		</g>
	</g>
	<g>
		<g>
			<path d="M968.1,385c-2.4-4.5-4-9.3-4.4-14.4c-0.3-3.6,0.5-18.2,7.3-12.4c3.6,3.1,3.1,9.9,3.2,14.4c0,2.1,0,4.3-0.2,6.4
				c-0.1,1.5-0.3,3-0.6,4.4c-2.6,1.8-4.6,1.7-5.9-0.2c-1.3-1.4-3.5,0.7-2.1,2.1c4.3,4.4,9.9,4.6,11.1-2.3c0.9-4.9,0.9-10.1,0.5-15
				c-0.3-3.9-0.3-9.5-3.2-12.5c-4.3-4.4-10.4-0.3-12.1,4.4c-3.1,8.4-0.1,19,3.9,26.6C966.4,388.2,969,386.7,968.1,385L968.1,385z"/>
		</g>
	</g>
	<g>
		<g>
			<path d="M988.8,295c3,14.1,21.5,15.2,27,2.2c0.7-1.8-2.2-2.6-2.9-0.8c-4.5,10.6-18.9,8.6-21.2-2.2
				C991.3,292.4,988.4,293.1,988.8,295L988.8,295z"/>
		</g>
	</g>
	<g>
		<g>
			<path d="M982.9,260.3c3.8-8.5,13.6-12.6,22.6-10.7c9.3,2,16.4,9.2,21,17.1c1,1.7,3.6,0.2,2.6-1.5c-5.3-9.1-13.7-17.2-24.5-18.8
				c-9.7-1.4-20.1,3.2-24.3,12.3C979.5,260.6,982.1,262.1,982.9,260.3L982.9,260.3z"/>
		</g>
	</g>
	<g>
		<g>
			<path d="M924.3,263.6c2.7-5.6,7.4-11.7,14.3-11.6c6.6,0.1,11.4,5.9,14.7,11c1,1.6,3.6,0.1,2.6-1.5c-3.8-6.1-9.5-12.4-17.3-12.5
				c-8-0.1-13.6,6.5-16.8,13.1C920.9,263.8,923.5,265.3,924.3,263.6L924.3,263.6z"/>
		</g>
	</g>
	<ellipse cx="942" cy="294.2" rx="3.2" ry="14.7"/>
</g>
<g id="hand_right">
	<path class="st3" d="M951.2,467.1c-0.3,3.7-0.7,8.8-0.9,14.7c-0.9,20.2-0.1,35.5,0.2,39.6c0.8,13.3,2.6,30.7,6.8,50.9
		c-4,4.6-10,11.4-17.7,19.4c-14.6,15.3-22.1,23.1-34.1,31.2c-13.4,9-22.7,11.8-27.7,13.1c-6.3,1.5-12.3,2.9-19.6,1.3
		c-11.9-2.7-19-11.5-21.6-14.9c-6.6-8.4-8.1-16.6-10.8-32.6c-2-11.7-2.4-20.6-3-37.8c-0.3-8.2-0.7-18.2-0.5-31.6
		c0.2-15.1,1-33,3.2-53c1-9,2.4-20.1,4.6-32.7c-1.7-2.4-3.5-4.8-5.4-7.3c-2-2.6-3.9-5.1-5.9-7.6c-5.1,4.3-10.1,8.7-15.2,13
		c-1.3,0.5-3.6,1.3-6.4,1c-5.3-0.5-8.4-4.2-9.5-5.4c-4.9-5.6-4.2-12.7-4-14.1c6.9-7.5,13.8-14.9,20.8-22.4c0.1-4.3,0.7-9.9,2.4-16.1
		c1.3-4.6,2.9-8.4,4.4-11.6c1.3-2.6,3.1-5.5,5.4-8.4c4.1-5.4,8.5-9.2,12.1-11.8c-2.9,1.3-3.6,1.3-3.8,1.1c-0.5-0.8,4.2-6.7,10.8-7.3
		c3.7-0.4,6.6,1,8.6,1.9c3.1,1.5,5.2,3.4,6.5,4.8c6.2-5.3,12.4-10.6,18.6-15.8c2.2,1.3,4.4,2.8,6.6,4.3c5.1,3.5,9.7,7,13.8,10.4
		c-1.5,1.9-3.4,4-5.8,6.1c-4,3.5-8,5.6-11.1,7c1.9,0.6,5.3,2,7,5.3c1.7,3.2,1,6.7,0,11.1c-0.7,3-1.6,5.4-2.3,7
		c0.4,4.2,0.6,9.9-0.6,16.3c-1.9,10.5-6.3,18.3-9.3,22.8c-0.1,3.9-0.2,10,0,17.5c0.8,30.9,5.3,49,8.2,71.8c1.7,13,3.4,32.3,2.9,56.6
		c2.3-1.5,5.6-3.9,9.3-7c9.4-7.9,15.4-15.8,23.3-27.4c7.8-11.3,12.9-19.7,19.8-30.9C935.6,492.3,942.5,481.2,951.2,467.1z"/>
	<path class="st7" d="M860.3,375.8c-2.1,4.6-4.2,9.3-6.3,14.1c-6.1,14.4-11.1,28.2-15.2,41.4c-0.9,20.8-1.4,38.2-1.8,50.8
		c-0.5,19.1,0.7,41.9,2.9,87.5c0.9,18.8,1.7,30.2,10.5,38.5c9.2,8.6,22,8.8,29.2,8.8c38.4-0.1,67.1-32.8,75-42.3
		c-10.7,18.2-22.9,30.1-31.2,37.1c-9.4,7.9-21.5,17.8-40.3,22.7c-15.9,4.2-23.1,3.3-25,2.9c-13.7-3.3-21.3-14.7-24-18.6
		c-6.5-9.7-8.6-19.8-9.8-41.5c-1.2-22.3,0.1-28.2,0.5-58.9c0.3-29.3-0.8-37.6,1.4-57.9c1.3-11.9,2.9-21.7,4.2-28.3
		c-3.9-4.1-7.8-8.2-11.7-12.2c-3.3,2.9-6.7,5.7-10.1,8.6c-2.2,1.9-4.5,3.8-6.7,5.6c-2,0.2-4.9,0.1-8-1.2c-8-3.4-13-13.3-10.5-16.7
		c1.6-2.3,5.8-0.5,11.6-0.5c10,0.1,16.7-5,30-14.6C834.4,394.2,845.2,386.5,860.3,375.8z"/>
	<g>
		<g>
			<path d="M949.9,466.3c-23.1,31.9-40.2,68.5-69.4,95.7c-1.4,1.3,0.7,3.4,2.1,2.1c29.4-27.4,46.6-64.2,69.9-96.3
				C953.7,466.3,951.1,464.8,949.9,466.3L949.9,466.3z"/>
		</g>
	</g>
	<g>
		<g>
			<path d="M863.9,639.6c39.6-2.6,68-35.8,91.8-64c1.2-1.5-0.9-3.6-2.1-2.1c-23.1,27.6-51.1,60.6-89.6,63.2
				C862,636.7,862,639.7,863.9,639.6L863.9,639.6z"/>
		</g>
	</g>
	<g>
		<g>
			<path d="M845.1,357.9c0.2,7.9,5.4,14.7,13,16.9c1.9,0.5,2.7-2.4,0.8-2.9c-6.3-1.8-10.6-7.5-10.8-14C848,356,845,356,845.1,357.9
				L845.1,357.9z"/>
		</g>
	</g>
	<g>
		<g>
			<path d="M848.2,357c1-8.7,16.5-2.4,20.7-0.2c4.1,2.1,8.2,4.2,9.1,9.2c0.7,3.8-0.5,7.8-1.5,11.5c-0.5,1.9,2.4,2.7,2.9,0.8
				c1.4-5,2.9-10.7,0.8-15.6c-2-5-7.5-7.3-12-9.5c-4.6-2.2-9.6-3.8-14.8-3.2c-2.1,0.3-4.8,0.8-6.5,2.2c-1.8,1.4-1.4,2.4-1.7,4.9
				C845,358.9,848,358.9,848.2,357L848.2,357z"/>
		</g>
	</g>
	<g>
		<g>
			<path d="M875.5,376.9c-0.3,7.6,1.4,15-0.4,22.6c-1.7,7-5.1,13.5-8.5,19.8c-0.9,1.7,1.7,3.2,2.6,1.5c3.5-6.6,7-13.3,8.8-20.5
				c1.9-7.8,0.2-15.5,0.5-23.4C878.6,374.9,875.6,374.9,875.5,376.9L875.5,376.9z"/>
		</g>
	</g>
	<g>
		<g>
			<path d="M866.6,419.4c-2.3,52.7,12.8,104.3,10.4,157c-0.1,1.9,2.9,1.9,3,0c2.4-52.7-12.7-104.3-10.4-157
				C869.7,417.5,866.7,417.5,866.6,419.4L866.6,419.4z"/>
		</g>
	</g>
	<g>
		<g>
			<path d="M817.5,420.5c3,4.2,6.2,8.2,9.8,11.9c1.3,1.4,3.4-0.7,2.1-2.1c-3.4-3.6-6.5-7.3-9.3-11.3
				C818.9,417.4,816.3,418.9,817.5,420.5L817.5,420.5z"/>
		</g>
	</g>
	<g>
		<g>
			<path d="M829,431.6c-5.7,32.5-8.5,65.5-8.4,98.5c0.1,16.4,0.9,32.9,2.5,49.2c1.3,13.9,2.9,28.5,10.2,40.7
				c6.6,11.1,18.2,19.5,31.4,19.2c1.9-0.1,1.9-3.1,0-3c-18.5,0.5-30.4-16-34.7-32.2c-4.8-17.8-5.2-37.2-5.9-55.5
				c-1.5-38.8,1.2-77.8,7.9-116C832.2,430.5,829.3,429.7,829,431.6L829,431.6z"/>
		</g>
	</g>
	<g>
		<g>
			<path d="M810.1,386.7c-9.4,7.9-18.5,16.2-27.1,24.9c-1.4,1.4,0.8,3.5,2.1,2.1c8.7-8.7,17.7-17,27.1-24.9
				C813.7,387.6,811.6,385.5,810.1,386.7L810.1,386.7z"/>
		</g>
	</g>
	<g>
		<g>
			<path d="M782.1,414.3c-1.5,11.6,7.3,21.4,19,21.3c1.9,0,1.9-3,0-3c-10.1,0.1-17.3-8.4-16-18.3
				C785.4,412.4,782.4,412.4,782.1,414.3L782.1,414.3z"/>
		</g>
	</g>
	<g>
		<g>
			<path d="M784.9,413.6c10.5,0.3,17.8,9.7,15.6,19.9c-0.4,1.9,2.5,2.7,2.9,0.8c2.7-12.3-5.9-23.3-18.5-23.7
				C783,410.6,783,413.6,784.9,413.6L784.9,413.6z"/>
		</g>
	</g>
	<g>
		<g>
			<path d="M804.6,433.8c11.4-10.4,23-20.7,34.1-31.4c5.1-4.9,10-9.9,14.6-15.3c2.5-2.9,8.8-8.6,8.9-12.6c0-0.5-0.3-1.1-0.7-1.3
				c-0.2-0.1-0.4-0.2-0.5-0.2c-0.6-0.3-1.4-0.3-1.8,0.2c-0.1,0.1-0.2,0.2-0.3,0.4c-1.2,1.5,0.9,3.6,2.1,2.1c0.1-0.1,0.2-0.2,0.3-0.4
				c-0.6,0.1-1.2,0.2-1.8,0.2c-0.2-0.9-0.5-0.9-0.9,0.1c-0.5,0.7-1,1.4-1.6,2.1c-1.2,1.5-2.3,3-3.6,4.5c-2,2.5-4.2,4.9-6.3,7.3
				c-4.4,4.8-9,9.3-13.7,13.7c-10.2,9.6-20.6,18.9-30.9,28.4C801,433,803.2,435.1,804.6,433.8L804.6,433.8z"/>
		</g>
	</g>
	<g>
		<g>
			<path d="M805.9,392.3c0.7-4.8,1.4-9.6,2.1-14.4c0.5-3.6,0.9-7.6,2.9-10.8c4.6-7.4,11.1-2.1,14.6,2.9c1.5,2.1,2.9,4.4,4.4,6.5
				c0.8,1.2,4.7,5.5,4.2,7c0.5-0.4,1-0.7,1.4-1.1c-0.2,0-0.3,0-0.5,0c-1.9-0.1-1.9,2.9,0,3c0.2,0,0.3,0,0.5,0c0.7,0,1.3-0.5,1.4-1.1
				c0.7-2.5-1-4-2.3-6c-2.5-3.7-4.9-7.5-7.5-11.1c-2.7-3.7-6.2-7.3-11.2-6.8c-4.8,0.5-7.7,4.2-9.2,8.5c-2.5,7.1-2.7,15.2-3.8,22.6
				C802.7,393.4,805.6,394.2,805.9,392.3L805.9,392.3z"/>
		</g>
	</g>
	<g>
		<g>
			<path d="M810.6,381c2.7,5.3,7.2,10.7,13.6,11.1c5.3,0.4,10.3-2.6,11.7-7.8c0.5-1.9-2.4-2.7-2.9-0.8c-1.3,4.8-6.6,6.6-11,5.1
				c-4.2-1.5-6.9-5.2-8.8-9C812.3,377.8,809.7,379.3,810.6,381L810.6,381z"/>
		</g>
	</g>
	<g>
		<g>
			<path d="M814.3,361.5c0.5-4.9,6.1-6.2,9.9-4.9c4,1.3,7.1,4.9,9.9,7.8c2.2,2.3,6.5,5.5,7.1,8.7c0.8,4.3-4.6,7.2-8.2,8.3
				c-1.8,0.5-1.1,3.4,0.8,2.9c4.4-1.3,10.8-5.2,11.5-10.4c0.3-2.1-1-3.2-2.4-4.7c-2.8-3-5.5-5.9-8.4-8.8c-3.9-4-8.9-8.3-14.9-7.3
				c-4.5,0.7-7.8,3.7-8.3,8.3C811.1,363.4,814.1,363.4,814.3,361.5L814.3,361.5z"/>
		</g>
	</g>
	<g>
		<g>
			<path d="M819.7,354.1c1.4-1.6,2.1-3.7,3.4-5.3c3.2-4,8.2-0.3,11.5,2.1c6.4,4.5,13.2,12.7,7.4,20.5c-1.1,1.6,1.5,3.1,2.6,1.5
				c6.2-8.4,0.1-18.1-7-23.5c-3.3-2.5-8.3-7-12.8-5.7c-4,1.1-4.7,5.7-7.2,8.4C816.3,353.4,818.4,355.5,819.7,354.1L819.7,354.1z"/>
		</g>
	</g>
	<g>
		<g>
			<path d="M829.8,345c3.5-4.3,8.1-8.8,13.5-4.3c3.6,2.9,5.9,7,7.2,11.3c0.6,1.8,3.4,1.1,2.9-0.8c-1.7-5.8-5.6-12.5-11.4-14.9
				c-5.9-2.4-10.8,2.3-14.3,6.6C826.5,344.3,828.6,346.5,829.8,345L829.8,345z"/>
		</g>
	</g>
	<g>
		<g>
			<path d="M851.9,345.4c6.2-5.3,12.4-10.6,18.6-15.8c1.5-1.3-0.7-3.4-2.1-2.1c-6.2,5.3-12.4,10.6-18.6,15.8
				C848.3,344.6,850.5,346.7,851.9,345.4L851.9,345.4z"/>
		</g>
	</g>
	<g>
		<g>
			<path d="M874,358.2c5.9-4.3,11.6-8.9,16.9-13.9c1.4-1.3-0.7-3.4-2.1-2.1c-5.2,4.8-10.6,9.3-16.3,13.4
				C870.9,356.7,872.4,359.3,874,358.2L874,358.2z"/>
		</g>
	</g>
	<circle class="st8" cx="918.9" cy="290.3" r="60.4"/>
	<g>
		<g>
			<path d="M882.3,297.7c22.2-14.2,44.9-27.6,68.1-40.2c1.7-0.9,0.2-3.5-1.5-2.6c-23.2,12.5-45.9,25.9-68.1,40.2
				C879.2,296.2,880.7,298.8,882.3,297.7L882.3,297.7z"/>
		</g>
	</g>
	<g>
		<g>
			<path d="M884.8,323.9c18.3-13.4,36.8-26.3,55.7-38.9c1.6-1.1,0.1-3.7-1.5-2.6c-18.8,12.6-37.4,25.6-55.7,38.9
				C881.7,322.4,883.2,325,884.8,323.9L884.8,323.9z"/>
		</g>
	</g>
</g>
</svg>
